<mxfile host="app.diagrams.net" modified="2024-03-27T09:14:56.684Z" agent="Mozilla/5.0 (Windows NT 10.0; Win64; x64) AppleWebKit/537.36 (KHTML, like Gecko) Chrome/122.0.0.0 Safari/537.36 Edg/122.0.0.0" etag="YdVPxkXHBsqjkp7yuzZF" version="24.0.7" type="device">
  <diagram name="Page-1" id="FA_mgnY1slj4U9X5P1ZQ">
    <mxGraphModel dx="1042" dy="569" grid="1" gridSize="10" guides="1" tooltips="1" connect="1" arrows="1" fold="1" page="1" pageScale="1" pageWidth="850" pageHeight="1100" math="0" shadow="0">
      <root>
        <mxCell id="0" />
        <mxCell id="1" parent="0" />
        <mxCell id="7FK5Sv6TPkfOfSebKQwu-6" value="Kishan Saathi Server" style="shape=umlLifeline;perimeter=lifelinePerimeter;whiteSpace=wrap;html=1;container=1;dropTarget=0;collapsible=0;recursiveResize=0;outlineConnect=0;portConstraint=eastwest;newEdgeStyle={&quot;curved&quot;:0,&quot;rounded&quot;:0};" vertex="1" parent="1">
          <mxGeometry x="520" y="80" width="100" height="1100" as="geometry" />
        </mxCell>
        <mxCell id="7FK5Sv6TPkfOfSebKQwu-72" value="" style="html=1;points=[[0,0,0,0,5],[0,1,0,0,-5],[1,0,0,0,5],[1,1,0,0,-5]];perimeter=orthogonalPerimeter;outlineConnect=0;targetShapes=umlLifeline;portConstraint=eastwest;newEdgeStyle={&quot;curved&quot;:0,&quot;rounded&quot;:0};" vertex="1" parent="1">
          <mxGeometry x="565" y="140" width="10" height="1020" as="geometry" />
        </mxCell>
        <mxCell id="7FK5Sv6TPkfOfSebKQwu-2" value="Admin" style="shape=umlLifeline;perimeter=lifelinePerimeter;whiteSpace=wrap;html=1;container=1;dropTarget=0;collapsible=0;recursiveResize=0;outlineConnect=0;portConstraint=eastwest;newEdgeStyle={&quot;curved&quot;:0,&quot;rounded&quot;:0};" vertex="1" parent="1">
          <mxGeometry x="40" y="80" width="100" height="1120" as="geometry" />
        </mxCell>
        <mxCell id="7FK5Sv6TPkfOfSebKQwu-64" value="" style="shape=umlDestroy;whiteSpace=wrap;html=1;strokeWidth=3;targetShapes=umlLifeline;" vertex="1" parent="7FK5Sv6TPkfOfSebKQwu-2">
          <mxGeometry x="35" y="1090" width="30" height="30" as="geometry" />
        </mxCell>
        <mxCell id="7FK5Sv6TPkfOfSebKQwu-71" value="" style="html=1;points=[[0,0,0,0,5],[0,1,0,0,-5],[1,0,0,0,5],[1,1,0,0,-5]];perimeter=orthogonalPerimeter;outlineConnect=0;targetShapes=umlLifeline;portConstraint=eastwest;newEdgeStyle={&quot;curved&quot;:0,&quot;rounded&quot;:0};" vertex="1" parent="1">
          <mxGeometry x="85" y="140" width="10" height="260" as="geometry" />
        </mxCell>
        <mxCell id="7FK5Sv6TPkfOfSebKQwu-3" value="Farmer" style="shape=umlLifeline;perimeter=lifelinePerimeter;whiteSpace=wrap;html=1;container=1;dropTarget=0;collapsible=0;recursiveResize=0;outlineConnect=0;portConstraint=eastwest;newEdgeStyle={&quot;curved&quot;:0,&quot;rounded&quot;:0};" vertex="1" parent="1">
          <mxGeometry x="160" y="80" width="100" height="1100" as="geometry" />
        </mxCell>
        <mxCell id="7FK5Sv6TPkfOfSebKQwu-74" value="" style="html=1;points=[[0,0,0,0,5],[0,1,0,0,-5],[1,0,0,0,5],[1,1,0,0,-5]];perimeter=orthogonalPerimeter;outlineConnect=0;targetShapes=umlLifeline;portConstraint=eastwest;newEdgeStyle={&quot;curved&quot;:0,&quot;rounded&quot;:0};" vertex="1" parent="7FK5Sv6TPkfOfSebKQwu-3">
          <mxGeometry x="45" y="380" width="10" height="420" as="geometry" />
        </mxCell>
        <mxCell id="7FK5Sv6TPkfOfSebKQwu-4" value="Consumer" style="shape=umlLifeline;perimeter=lifelinePerimeter;whiteSpace=wrap;html=1;container=1;dropTarget=0;collapsible=0;recursiveResize=0;outlineConnect=0;portConstraint=eastwest;newEdgeStyle={&quot;curved&quot;:0,&quot;rounded&quot;:0};" vertex="1" parent="1">
          <mxGeometry x="280" y="80" width="100" height="1100" as="geometry" />
        </mxCell>
        <mxCell id="7FK5Sv6TPkfOfSebKQwu-5" value="Classifier Server" style="shape=umlLifeline;perimeter=lifelinePerimeter;whiteSpace=wrap;html=1;container=1;dropTarget=0;collapsible=0;recursiveResize=0;outlineConnect=0;portConstraint=eastwest;newEdgeStyle={&quot;curved&quot;:0,&quot;rounded&quot;:0};" vertex="1" parent="1">
          <mxGeometry x="400" y="80" width="100" height="1100" as="geometry" />
        </mxCell>
        <mxCell id="7FK5Sv6TPkfOfSebKQwu-7" value="Paypal Server" style="shape=umlLifeline;perimeter=lifelinePerimeter;whiteSpace=wrap;html=1;container=1;dropTarget=0;collapsible=0;recursiveResize=0;outlineConnect=0;portConstraint=eastwest;newEdgeStyle={&quot;curved&quot;:0,&quot;rounded&quot;:0};" vertex="1" parent="1">
          <mxGeometry x="640" y="80" width="100" height="1120" as="geometry" />
        </mxCell>
        <mxCell id="7FK5Sv6TPkfOfSebKQwu-69" value="" style="shape=umlDestroy;whiteSpace=wrap;html=1;strokeWidth=3;targetShapes=umlLifeline;" vertex="1" parent="7FK5Sv6TPkfOfSebKQwu-7">
          <mxGeometry x="35" y="1090" width="30" height="30" as="geometry" />
        </mxCell>
        <mxCell id="7FK5Sv6TPkfOfSebKQwu-77" value="" style="html=1;points=[[0,0,0,0,5],[0,1,0,0,-5],[1,0,0,0,5],[1,1,0,0,-5]];perimeter=orthogonalPerimeter;outlineConnect=0;targetShapes=umlLifeline;portConstraint=eastwest;newEdgeStyle={&quot;curved&quot;:0,&quot;rounded&quot;:0};" vertex="1" parent="7FK5Sv6TPkfOfSebKQwu-7">
          <mxGeometry x="45" y="995" width="10" height="80" as="geometry" />
        </mxCell>
        <mxCell id="7FK5Sv6TPkfOfSebKQwu-15" value="Admin" style="shape=umlFrame;whiteSpace=wrap;html=1;pointerEvents=0;" vertex="1" parent="1">
          <mxGeometry y="130" width="790" height="310" as="geometry" />
        </mxCell>
        <mxCell id="7FK5Sv6TPkfOfSebKQwu-16" value="provide login credentials" style="html=1;verticalAlign=bottom;endArrow=block;curved=0;rounded=0;" edge="1" parent="1" source="7FK5Sv6TPkfOfSebKQwu-2" target="7FK5Sv6TPkfOfSebKQwu-6">
          <mxGeometry width="80" relative="1" as="geometry">
            <mxPoint x="380" y="170" as="sourcePoint" />
            <mxPoint x="460" y="170" as="targetPoint" />
            <Array as="points">
              <mxPoint x="270" y="150" />
            </Array>
          </mxGeometry>
        </mxCell>
        <mxCell id="7FK5Sv6TPkfOfSebKQwu-18" value="navigate to admin dashboard" style="html=1;verticalAlign=bottom;endArrow=open;dashed=1;endSize=8;curved=0;rounded=0;" edge="1" parent="1" source="7FK5Sv6TPkfOfSebKQwu-6" target="7FK5Sv6TPkfOfSebKQwu-2">
          <mxGeometry relative="1" as="geometry">
            <mxPoint x="460" y="170" as="sourcePoint" />
            <mxPoint x="380" y="170" as="targetPoint" />
            <Array as="points">
              <mxPoint x="330" y="170" />
            </Array>
          </mxGeometry>
        </mxCell>
        <mxCell id="7FK5Sv6TPkfOfSebKQwu-19" value="CRUD Banner" style="html=1;verticalAlign=bottom;endArrow=block;curved=0;rounded=0;" edge="1" parent="1" source="7FK5Sv6TPkfOfSebKQwu-72" target="7FK5Sv6TPkfOfSebKQwu-6">
          <mxGeometry width="80" relative="1" as="geometry">
            <mxPoint x="380" y="170" as="sourcePoint" />
            <mxPoint x="460" y="170" as="targetPoint" />
            <Array as="points" />
          </mxGeometry>
        </mxCell>
        <mxCell id="7FK5Sv6TPkfOfSebKQwu-20" value="CRUD Seed" style="html=1;verticalAlign=bottom;endArrow=block;curved=0;rounded=0;" edge="1" parent="1" source="7FK5Sv6TPkfOfSebKQwu-2" target="7FK5Sv6TPkfOfSebKQwu-6">
          <mxGeometry width="80" relative="1" as="geometry">
            <mxPoint x="100" y="200" as="sourcePoint" />
            <mxPoint x="580" y="200" as="targetPoint" />
            <Array as="points">
              <mxPoint x="330" y="240" />
            </Array>
          </mxGeometry>
        </mxCell>
        <mxCell id="7FK5Sv6TPkfOfSebKQwu-21" value="CRUD Product" style="html=1;verticalAlign=bottom;endArrow=block;curved=0;rounded=0;" edge="1" parent="1" source="7FK5Sv6TPkfOfSebKQwu-2" target="7FK5Sv6TPkfOfSebKQwu-6">
          <mxGeometry width="80" relative="1" as="geometry">
            <mxPoint x="100" y="240" as="sourcePoint" />
            <mxPoint x="540" y="240" as="targetPoint" />
            <Array as="points">
              <mxPoint x="330" y="300" />
            </Array>
          </mxGeometry>
        </mxCell>
        <mxCell id="7FK5Sv6TPkfOfSebKQwu-22" value="update db and return success" style="html=1;verticalAlign=bottom;endArrow=open;dashed=1;endSize=8;curved=0;rounded=0;" edge="1" parent="1">
          <mxGeometry relative="1" as="geometry">
            <mxPoint x="569.5" y="220" as="sourcePoint" />
            <mxPoint x="89.5" y="220" as="targetPoint" />
          </mxGeometry>
        </mxCell>
        <mxCell id="7FK5Sv6TPkfOfSebKQwu-23" value="update db and return success" style="html=1;verticalAlign=bottom;endArrow=open;dashed=1;endSize=8;curved=0;rounded=0;" edge="1" parent="1" source="7FK5Sv6TPkfOfSebKQwu-6" target="7FK5Sv6TPkfOfSebKQwu-2">
          <mxGeometry relative="1" as="geometry">
            <mxPoint x="550" y="270" as="sourcePoint" />
            <mxPoint x="110" y="270" as="targetPoint" />
            <Array as="points">
              <mxPoint x="330" y="270" />
            </Array>
          </mxGeometry>
        </mxCell>
        <mxCell id="7FK5Sv6TPkfOfSebKQwu-24" value="Manage Order" style="html=1;verticalAlign=bottom;endArrow=block;curved=0;rounded=0;" edge="1" parent="1" source="7FK5Sv6TPkfOfSebKQwu-2" target="7FK5Sv6TPkfOfSebKQwu-6">
          <mxGeometry width="80" relative="1" as="geometry">
            <mxPoint x="100" y="360" as="sourcePoint" />
            <mxPoint x="550" y="360" as="targetPoint" />
            <Array as="points">
              <mxPoint x="340" y="360" />
            </Array>
          </mxGeometry>
        </mxCell>
        <mxCell id="7FK5Sv6TPkfOfSebKQwu-25" value="update db and return success" style="html=1;verticalAlign=bottom;endArrow=open;dashed=1;endSize=8;curved=0;rounded=0;" edge="1" parent="1" source="7FK5Sv6TPkfOfSebKQwu-6" target="7FK5Sv6TPkfOfSebKQwu-2">
          <mxGeometry relative="1" as="geometry">
            <mxPoint x="550" y="330" as="sourcePoint" />
            <mxPoint x="100" y="330" as="targetPoint" />
            <Array as="points">
              <mxPoint x="340" y="330" />
            </Array>
          </mxGeometry>
        </mxCell>
        <mxCell id="7FK5Sv6TPkfOfSebKQwu-27" value="return success" style="html=1;verticalAlign=bottom;endArrow=open;dashed=1;endSize=8;curved=0;rounded=0;" edge="1" parent="1" source="7FK5Sv6TPkfOfSebKQwu-6" target="7FK5Sv6TPkfOfSebKQwu-2">
          <mxGeometry relative="1" as="geometry">
            <mxPoint x="540" y="390" as="sourcePoint" />
            <mxPoint x="100" y="390" as="targetPoint" />
            <Array as="points">
              <mxPoint x="350" y="390" />
            </Array>
          </mxGeometry>
        </mxCell>
        <mxCell id="7FK5Sv6TPkfOfSebKQwu-28" value="signup as farmer" style="html=1;verticalAlign=bottom;endArrow=block;curved=0;rounded=0;" edge="1" parent="1" target="7FK5Sv6TPkfOfSebKQwu-6">
          <mxGeometry width="80" relative="1" as="geometry">
            <mxPoint x="210" y="480" as="sourcePoint" />
            <mxPoint x="450" y="480" as="targetPoint" />
          </mxGeometry>
        </mxCell>
        <mxCell id="7FK5Sv6TPkfOfSebKQwu-30" value="registration success" style="html=1;verticalAlign=bottom;endArrow=open;dashed=1;endSize=8;curved=0;rounded=0;" edge="1" parent="1" source="7FK5Sv6TPkfOfSebKQwu-6" target="7FK5Sv6TPkfOfSebKQwu-3">
          <mxGeometry relative="1" as="geometry">
            <mxPoint x="540" y="500" as="sourcePoint" />
            <mxPoint x="240" y="500" as="targetPoint" />
            <Array as="points">
              <mxPoint x="390" y="510" />
            </Array>
          </mxGeometry>
        </mxCell>
        <mxCell id="7FK5Sv6TPkfOfSebKQwu-31" value="Login" style="html=1;verticalAlign=bottom;endArrow=block;curved=0;rounded=0;" edge="1" parent="1" source="7FK5Sv6TPkfOfSebKQwu-3" target="7FK5Sv6TPkfOfSebKQwu-6">
          <mxGeometry width="80" relative="1" as="geometry">
            <mxPoint x="215" y="530" as="sourcePoint" />
            <mxPoint x="510" y="540" as="targetPoint" />
            <Array as="points">
              <mxPoint x="390" y="540" />
            </Array>
          </mxGeometry>
        </mxCell>
        <mxCell id="7FK5Sv6TPkfOfSebKQwu-32" value="login success" style="html=1;verticalAlign=bottom;endArrow=open;dashed=1;endSize=8;curved=0;rounded=0;" edge="1" parent="1" source="7FK5Sv6TPkfOfSebKQwu-6" target="7FK5Sv6TPkfOfSebKQwu-3">
          <mxGeometry relative="1" as="geometry">
            <mxPoint x="550" y="520" as="sourcePoint" />
            <mxPoint x="220" y="516" as="targetPoint" />
            <Array as="points">
              <mxPoint x="380" y="560" />
            </Array>
          </mxGeometry>
        </mxCell>
        <mxCell id="7FK5Sv6TPkfOfSebKQwu-33" value="Enter soil nutrients and weather data" style="html=1;verticalAlign=bottom;endArrow=block;curved=0;rounded=0;" edge="1" parent="1" source="7FK5Sv6TPkfOfSebKQwu-3" target="7FK5Sv6TPkfOfSebKQwu-5">
          <mxGeometry width="80" relative="1" as="geometry">
            <mxPoint x="390" y="390" as="sourcePoint" />
            <mxPoint x="420" y="390" as="targetPoint" />
            <Array as="points">
              <mxPoint x="330" y="590" />
            </Array>
          </mxGeometry>
        </mxCell>
        <mxCell id="7FK5Sv6TPkfOfSebKQwu-34" value="Recommend suitable crop" style="html=1;verticalAlign=bottom;endArrow=open;dashed=1;endSize=8;curved=0;rounded=0;" edge="1" parent="1" source="7FK5Sv6TPkfOfSebKQwu-5" target="7FK5Sv6TPkfOfSebKQwu-3">
          <mxGeometry relative="1" as="geometry">
            <mxPoint x="350" y="630" as="sourcePoint" />
            <mxPoint x="270" y="630" as="targetPoint" />
            <Array as="points">
              <mxPoint x="330" y="620" />
            </Array>
          </mxGeometry>
        </mxCell>
        <mxCell id="7FK5Sv6TPkfOfSebKQwu-35" value="Order Seed" style="html=1;verticalAlign=bottom;endArrow=block;curved=0;rounded=0;" edge="1" parent="1" source="7FK5Sv6TPkfOfSebKQwu-3" target="7FK5Sv6TPkfOfSebKQwu-6">
          <mxGeometry width="80" relative="1" as="geometry">
            <mxPoint x="220" y="650" as="sourcePoint" />
            <mxPoint x="440" y="650" as="targetPoint" />
            <Array as="points">
              <mxPoint x="340" y="650" />
            </Array>
          </mxGeometry>
        </mxCell>
        <mxCell id="7FK5Sv6TPkfOfSebKQwu-36" value="Create Order" style="html=1;verticalAlign=bottom;endArrow=open;dashed=1;endSize=8;curved=0;rounded=0;" edge="1" parent="1" source="7FK5Sv6TPkfOfSebKQwu-6" target="7FK5Sv6TPkfOfSebKQwu-3">
          <mxGeometry relative="1" as="geometry">
            <mxPoint x="570" y="670" as="sourcePoint" />
            <mxPoint x="240" y="670" as="targetPoint" />
            <Array as="points">
              <mxPoint x="380" y="670" />
            </Array>
          </mxGeometry>
        </mxCell>
        <mxCell id="7FK5Sv6TPkfOfSebKQwu-37" value="Make payment" style="html=1;verticalAlign=bottom;endArrow=block;curved=0;rounded=0;" edge="1" parent="1" source="7FK5Sv6TPkfOfSebKQwu-3" target="7FK5Sv6TPkfOfSebKQwu-6">
          <mxGeometry width="80" relative="1" as="geometry">
            <mxPoint x="230" y="690" as="sourcePoint" />
            <mxPoint x="540" y="690" as="targetPoint" />
            <Array as="points">
              <mxPoint x="345" y="690" />
            </Array>
          </mxGeometry>
        </mxCell>
        <mxCell id="7FK5Sv6TPkfOfSebKQwu-38" value="Verify Payment credential" style="html=1;verticalAlign=bottom;endArrow=block;curved=0;rounded=0;" edge="1" parent="1" source="7FK5Sv6TPkfOfSebKQwu-6" target="7FK5Sv6TPkfOfSebKQwu-7">
          <mxGeometry width="80" relative="1" as="geometry">
            <mxPoint x="600" y="525" as="sourcePoint" />
            <mxPoint x="660" y="710" as="targetPoint" />
            <Array as="points">
              <mxPoint x="630" y="720" />
            </Array>
          </mxGeometry>
        </mxCell>
        <mxCell id="7FK5Sv6TPkfOfSebKQwu-39" value="success" style="html=1;verticalAlign=bottom;endArrow=open;dashed=1;endSize=8;curved=0;rounded=0;" edge="1" parent="1" source="7FK5Sv6TPkfOfSebKQwu-7" target="7FK5Sv6TPkfOfSebKQwu-6">
          <mxGeometry relative="1" as="geometry">
            <mxPoint x="670" y="740" as="sourcePoint" />
            <mxPoint x="590" y="740" as="targetPoint" />
            <Array as="points">
              <mxPoint x="630" y="750" />
            </Array>
          </mxGeometry>
        </mxCell>
        <mxCell id="7FK5Sv6TPkfOfSebKQwu-40" value="payment success" style="html=1;verticalAlign=bottom;endArrow=open;dashed=1;endSize=8;curved=0;rounded=0;" edge="1" parent="1" source="7FK5Sv6TPkfOfSebKQwu-6" target="7FK5Sv6TPkfOfSebKQwu-3">
          <mxGeometry relative="1" as="geometry">
            <mxPoint x="580" y="680" as="sourcePoint" />
            <mxPoint x="220" y="680" as="targetPoint" />
            <Array as="points">
              <mxPoint x="390" y="770" />
            </Array>
          </mxGeometry>
        </mxCell>
        <mxCell id="7FK5Sv6TPkfOfSebKQwu-41" value="Enter soil nutrients" style="html=1;verticalAlign=bottom;endArrow=block;curved=0;rounded=0;" edge="1" parent="1" source="7FK5Sv6TPkfOfSebKQwu-3" target="7FK5Sv6TPkfOfSebKQwu-5">
          <mxGeometry width="80" relative="1" as="geometry">
            <mxPoint x="220" y="800" as="sourcePoint" />
            <mxPoint x="440" y="800" as="targetPoint" />
            <Array as="points">
              <mxPoint x="340" y="800" />
            </Array>
          </mxGeometry>
        </mxCell>
        <mxCell id="7FK5Sv6TPkfOfSebKQwu-44" value="Recommend crop cure" style="html=1;verticalAlign=bottom;endArrow=open;dashed=1;endSize=8;curved=0;rounded=0;" edge="1" parent="1" source="7FK5Sv6TPkfOfSebKQwu-5" target="7FK5Sv6TPkfOfSebKQwu-3">
          <mxGeometry relative="1" as="geometry">
            <mxPoint x="430" y="640" as="sourcePoint" />
            <mxPoint x="220" y="630" as="targetPoint" />
            <Array as="points">
              <mxPoint x="350" y="830" />
            </Array>
          </mxGeometry>
        </mxCell>
        <mxCell id="7FK5Sv6TPkfOfSebKQwu-45" value="CRUD Product" style="html=1;verticalAlign=bottom;endArrow=block;curved=0;rounded=0;" edge="1" parent="1" source="7FK5Sv6TPkfOfSebKQwu-3" target="7FK5Sv6TPkfOfSebKQwu-6">
          <mxGeometry width="80" relative="1" as="geometry">
            <mxPoint x="130" y="850" as="sourcePoint" />
            <mxPoint x="540" y="850" as="targetPoint" />
            <Array as="points">
              <mxPoint x="370" y="850" />
            </Array>
          </mxGeometry>
        </mxCell>
        <mxCell id="7FK5Sv6TPkfOfSebKQwu-46" value="update db and return success" style="html=1;verticalAlign=bottom;endArrow=open;dashed=1;endSize=8;curved=0;rounded=0;" edge="1" parent="1" source="7FK5Sv6TPkfOfSebKQwu-6" target="7FK5Sv6TPkfOfSebKQwu-3">
          <mxGeometry relative="1" as="geometry">
            <mxPoint x="550" y="340" as="sourcePoint" />
            <mxPoint x="100" y="340" as="targetPoint" />
            <Array as="points">
              <mxPoint x="360" y="870" />
            </Array>
          </mxGeometry>
        </mxCell>
        <mxCell id="7FK5Sv6TPkfOfSebKQwu-47" value="Farmer" style="shape=umlFrame;whiteSpace=wrap;html=1;pointerEvents=0;" vertex="1" parent="1">
          <mxGeometry y="450" width="790" height="440" as="geometry" />
        </mxCell>
        <mxCell id="7FK5Sv6TPkfOfSebKQwu-48" value="signup as customer" style="html=1;verticalAlign=bottom;endArrow=block;curved=0;rounded=0;" edge="1" parent="1" source="7FK5Sv6TPkfOfSebKQwu-4">
          <mxGeometry width="80" relative="1" as="geometry">
            <mxPoint x="210" y="920" as="sourcePoint" />
            <mxPoint x="570" y="920" as="targetPoint" />
          </mxGeometry>
        </mxCell>
        <mxCell id="7FK5Sv6TPkfOfSebKQwu-49" value="registration success" style="html=1;verticalAlign=bottom;endArrow=open;dashed=1;endSize=8;curved=0;rounded=0;" edge="1" parent="1" target="7FK5Sv6TPkfOfSebKQwu-4">
          <mxGeometry relative="1" as="geometry">
            <mxPoint x="570" y="950" as="sourcePoint" />
            <mxPoint x="340" y="950" as="targetPoint" />
            <Array as="points">
              <mxPoint x="390" y="950" />
            </Array>
          </mxGeometry>
        </mxCell>
        <mxCell id="7FK5Sv6TPkfOfSebKQwu-50" value="Login" style="html=1;verticalAlign=bottom;endArrow=block;curved=0;rounded=0;" edge="1" parent="1" source="7FK5Sv6TPkfOfSebKQwu-4">
          <mxGeometry width="80" relative="1" as="geometry">
            <mxPoint x="350" y="980" as="sourcePoint" />
            <mxPoint x="570" y="980" as="targetPoint" />
            <Array as="points">
              <mxPoint x="390" y="980" />
            </Array>
          </mxGeometry>
        </mxCell>
        <mxCell id="7FK5Sv6TPkfOfSebKQwu-51" value="login success" style="html=1;verticalAlign=bottom;endArrow=open;dashed=1;endSize=8;curved=0;rounded=0;" edge="1" parent="1" target="7FK5Sv6TPkfOfSebKQwu-4">
          <mxGeometry relative="1" as="geometry">
            <mxPoint x="570" y="1000" as="sourcePoint" />
            <mxPoint x="350" y="1000" as="targetPoint" />
            <Array as="points">
              <mxPoint x="380" y="1000" />
            </Array>
          </mxGeometry>
        </mxCell>
        <mxCell id="7FK5Sv6TPkfOfSebKQwu-58" value="Order Seed" style="html=1;verticalAlign=bottom;endArrow=block;curved=0;rounded=0;" edge="1" parent="1" source="7FK5Sv6TPkfOfSebKQwu-4">
          <mxGeometry width="80" relative="1" as="geometry">
            <mxPoint x="370" y="1030" as="sourcePoint" />
            <mxPoint x="570" y="1030" as="targetPoint" />
            <Array as="points">
              <mxPoint x="340" y="1030" />
            </Array>
          </mxGeometry>
        </mxCell>
        <mxCell id="7FK5Sv6TPkfOfSebKQwu-59" value="Create Order" style="html=1;verticalAlign=bottom;endArrow=open;dashed=1;endSize=8;curved=0;rounded=0;" edge="1" parent="1" target="7FK5Sv6TPkfOfSebKQwu-4">
          <mxGeometry relative="1" as="geometry">
            <mxPoint x="570" y="1050" as="sourcePoint" />
            <mxPoint x="370" y="1050" as="targetPoint" />
            <Array as="points">
              <mxPoint x="380" y="1050" />
            </Array>
          </mxGeometry>
        </mxCell>
        <mxCell id="7FK5Sv6TPkfOfSebKQwu-60" value="Make payment" style="html=1;verticalAlign=bottom;endArrow=block;curved=0;rounded=0;" edge="1" parent="1" source="7FK5Sv6TPkfOfSebKQwu-4">
          <mxGeometry width="80" relative="1" as="geometry">
            <mxPoint x="370" y="1070" as="sourcePoint" />
            <mxPoint x="570" y="1070" as="targetPoint" />
            <Array as="points">
              <mxPoint x="345" y="1070" />
            </Array>
          </mxGeometry>
        </mxCell>
        <mxCell id="7FK5Sv6TPkfOfSebKQwu-61" value="Verify Payment credential" style="html=1;verticalAlign=bottom;endArrow=block;curved=0;rounded=0;" edge="1" parent="1">
          <mxGeometry width="80" relative="1" as="geometry">
            <mxPoint x="570" y="1100" as="sourcePoint" />
            <mxPoint x="690" y="1100" as="targetPoint" />
            <Array as="points">
              <mxPoint x="630" y="1100" />
            </Array>
          </mxGeometry>
        </mxCell>
        <mxCell id="7FK5Sv6TPkfOfSebKQwu-62" value="success" style="html=1;verticalAlign=bottom;endArrow=open;dashed=1;endSize=8;curved=0;rounded=0;" edge="1" parent="1">
          <mxGeometry relative="1" as="geometry">
            <mxPoint x="690" y="1130" as="sourcePoint" />
            <mxPoint x="570" y="1130" as="targetPoint" />
            <Array as="points">
              <mxPoint x="630" y="1130" />
            </Array>
          </mxGeometry>
        </mxCell>
        <mxCell id="7FK5Sv6TPkfOfSebKQwu-63" value="payment success" style="html=1;verticalAlign=bottom;endArrow=open;dashed=1;endSize=8;curved=0;rounded=0;" edge="1" parent="1" target="7FK5Sv6TPkfOfSebKQwu-4">
          <mxGeometry relative="1" as="geometry">
            <mxPoint x="570" y="1150" as="sourcePoint" />
            <mxPoint x="350" y="1150" as="targetPoint" />
            <Array as="points">
              <mxPoint x="390" y="1150" />
            </Array>
          </mxGeometry>
        </mxCell>
        <mxCell id="7FK5Sv6TPkfOfSebKQwu-65" value="" style="shape=umlDestroy;whiteSpace=wrap;html=1;strokeWidth=3;targetShapes=umlLifeline;" vertex="1" parent="1">
          <mxGeometry x="195" y="1170" width="30" height="30" as="geometry" />
        </mxCell>
        <mxCell id="7FK5Sv6TPkfOfSebKQwu-66" value="" style="shape=umlDestroy;whiteSpace=wrap;html=1;strokeWidth=3;targetShapes=umlLifeline;" vertex="1" parent="1">
          <mxGeometry x="315" y="1170" width="30" height="30" as="geometry" />
        </mxCell>
        <mxCell id="7FK5Sv6TPkfOfSebKQwu-67" value="" style="shape=umlDestroy;whiteSpace=wrap;html=1;strokeWidth=3;targetShapes=umlLifeline;" vertex="1" parent="1">
          <mxGeometry x="435" y="1170" width="30" height="30" as="geometry" />
        </mxCell>
        <mxCell id="7FK5Sv6TPkfOfSebKQwu-68" value="" style="shape=umlDestroy;whiteSpace=wrap;html=1;strokeWidth=3;targetShapes=umlLifeline;" vertex="1" parent="1">
          <mxGeometry x="555" y="1170" width="30" height="30" as="geometry" />
        </mxCell>
        <mxCell id="7FK5Sv6TPkfOfSebKQwu-70" value="Customer" style="shape=umlFrame;whiteSpace=wrap;html=1;pointerEvents=0;" vertex="1" parent="1">
          <mxGeometry y="900" width="790" height="260" as="geometry" />
        </mxCell>
        <mxCell id="7FK5Sv6TPkfOfSebKQwu-73" value="" style="html=1;verticalAlign=bottom;endArrow=block;curved=0;rounded=0;" edge="1" parent="1" source="7FK5Sv6TPkfOfSebKQwu-2" target="7FK5Sv6TPkfOfSebKQwu-72">
          <mxGeometry width="80" relative="1" as="geometry">
            <mxPoint x="90" y="190" as="sourcePoint" />
            <mxPoint x="570" y="190" as="targetPoint" />
            <Array as="points">
              <mxPoint x="330" y="190" />
            </Array>
          </mxGeometry>
        </mxCell>
        <mxCell id="7FK5Sv6TPkfOfSebKQwu-75" value="" style="html=1;points=[[0,0,0,0,5],[0,1,0,0,-5],[1,0,0,0,5],[1,1,0,0,-5]];perimeter=orthogonalPerimeter;outlineConnect=0;targetShapes=umlLifeline;portConstraint=eastwest;newEdgeStyle={&quot;curved&quot;:0,&quot;rounded&quot;:0};" vertex="1" parent="1">
          <mxGeometry x="325" y="905" width="10" height="250" as="geometry" />
        </mxCell>
        <mxCell id="7FK5Sv6TPkfOfSebKQwu-76" value="" style="html=1;points=[[0,0,0,0,5],[0,1,0,0,-5],[1,0,0,0,5],[1,1,0,0,-5]];perimeter=orthogonalPerimeter;outlineConnect=0;targetShapes=umlLifeline;portConstraint=eastwest;newEdgeStyle={&quot;curved&quot;:0,&quot;rounded&quot;:0};" vertex="1" parent="1">
          <mxGeometry x="685" y="690" width="10" height="80" as="geometry" />
        </mxCell>
      </root>
    </mxGraphModel>
  </diagram>
</mxfile>
